<?xml version="1.0" encoding="utf-8"?>
<!-- Generator: Adobe Illustrator 21.0.0, SVG Export Plug-In . SVG Version: 6.00 Build 0)  -->
<svg version="1.1" id="Layer_1" xmlns="http://www.w3.org/2000/svg" xmlns:xlink="http://www.w3.org/1999/xlink" x="0px" y="0px"
	 viewBox="0 0 1024 1024" style="enable-background:new 0 0 1024 1024;" xml:space="preserve">
<style type="text/css">
	.st0{fill:#172039;}
	.st1{fill:none;stroke:#000000;stroke-miterlimit:10;}
	.st2{fill:#1126A7;}
	.st3{fill:#A2ADF2;}
	.st4{fill:#1632DE;}
	.st5{fill:#7384EB;}
	.st6{fill:#D0D6F8;}
	.st7{fill:#455BE5;}
</style>
<g id="XMLID_1_">
	<g>
		<polygon class="st0" points="954.9,256.3 955.2,768.3 512.4,1024 69.1,767.7 68.8,255.7 511.6,0 		"/>
	</g>
	<g>
		<polygon class="st1" points="511.6,0 68.8,255.7 69.1,767.7 512.4,1024 955.2,768.3 954.9,256.3 		"/>
	</g>
</g>
<path class="st1" d="M541.1,991.5"/>
<path class="st1" d="M558.2,380.5"/>
<path class="st1" d="M558.2,367.3"/>
<path class="st1" d="M558.2,658.4"/>
<path class="st1" d="M558.2,826.3"/>
<path class="st1" d="M558.2,311"/>
<path class="st1" d="M558.2,770"/>
<path class="st1" d="M558.2,935.3"/>
<g id="XMLID_2_">
	<g>
		<polygon class="st2" points="512.7,961.3 512.7,579.7 823.9,419.7 		"/>
		<polygon class="st3" points="512.5,961.5 199.5,780.4 199.2,419.7 199.7,419.7 512.7,961.3 512.7,961.4 		"/>
		<polygon class="st4" points="512.7,579.7 512.7,961.3 199.7,419.7 		"/>
		<polygon class="st5" points="824.5,419.6 824.8,780.8 512.7,961.4 512.7,961.3 823.9,419.7 824.2,419.3 		"/>
		<polygon class="st6" points="824.2,419.3 823.9,419.7 199.7,419.7 199.2,419.7 199.2,419.1 511.7,238.7 		"/>
		<polygon class="st7" points="823.9,419.7 512.7,579.7 199.7,419.7 		"/>
	</g>
	<g>
		<polygon class="st1" points="824.2,419.3 511.7,238.7 199.2,419.1 199.2,419.7 199.5,780.4 512.5,961.5 512.7,961.4 824.8,780.8 
			824.5,419.6 		"/>
		<line class="st1" x1="512.7" y1="961.3" x2="823.9" y2="419.7"/>
		<line class="st1" x1="823.9" y1="419.7" x2="512.7" y2="579.7"/>
		<line class="st1" x1="199.7" y1="419.7" x2="823.9" y2="419.7"/>
		<line class="st1" x1="199.7" y1="419.7" x2="512.7" y2="579.7"/>
		<line class="st1" x1="512.7" y1="961.3" x2="512.7" y2="579.7"/>
		<line class="st1" x1="199.7" y1="419.7" x2="512.7" y2="961.3"/>
	</g>
</g>
</svg>
